<svg xmlns="http://www.w3.org/2000/svg" width="133" height="73" viewBox="0 0 133 73"><g><g><g/><g><g><g><g><path fill="#004578" d="M21.869 46.94h-5.897L7.369 35.323l-2.52 2.694v8.925H0V20.94h4.85v10.559L15.26 20.94h6.075L10.737 32.133z"/></g><g><path fill="#004578" d="M31.329 20.94H26.39v26h4.939z"/></g><g><path fill="#004578" d="M73.396 31.614c-3.803-1.308-5.028-2.298-5.028-4.051 0-1.476 1.403-2.962 4.534-2.962 2.232 0 3.931.604 4.968 1.11l1.215.564v-4.626c-1.067-.475-3.042-1.109-6.065-1.109-5.67 0-9.63 3.04-9.63 7.39 0 4.655 4.445 6.596 7.774 7.646 3.97 1.357 4.74 2.565 4.74 4.2 0 2.139-1.955 3.476-5.106 3.476-2.064 0-4.346-.574-6.094-1.525l-.949-.476v4.695c1.986.912 4.327 1.407 6.796 1.407 7.655 0 10.371-4.22 10.371-7.825.01-4.705-3.802-6.636-7.526-7.914z"/></g></g><g><path fill="#939ca1" d="M59.487 45.731v1.199l-8.613-17.215-1.531 3.19 5.413 11.004a.187.187 0 0 1-.168.267H42.903l2.143 2.764h14.44V73H35.87V44.176l2.193 2.764h3.674l-2.153-2.764H35.87v-.564h3.497L50.32 20.929h-3.497L35.87 43.612V0h23.617v38.699l-8.613-17.532-10.826 22.544 2.183 2.803.632-1.446-.879-1.13c-.05-.079-.05-.138-.02-.197l1.768-3.566a.182.182 0 0 1 .168-.11h1.383l5.423-11.231a.186.186 0 0 1 .326 0zM44.197 40.7l-1.482 2.922h11.21L52.495 40.7z"/></g></g><g><g><path fill="#004578" d="M89.19 22.57h.909v1.714l1.61-1.714h1.126l-1.61 1.624 1.768 2.496h-1.136l-1.235-1.862-.513.525v1.328h-.919z"/></g><g><path fill="#004578" d="M94.995 22.47c1.274 0 2.025.95 2.025 2.18 0 1.188-.75 2.139-2.025 2.139-1.274 0-2.025-.951-2.025-2.14.01-1.218.75-2.179 2.025-2.179zm0 3.556c.81 0 1.116-.693 1.116-1.377 0-.723-.306-1.416-1.116-1.416s-1.116.693-1.116 1.416c0 .684.306 1.377 1.116 1.377z"/></g><g><path fill="#004578" d="M97.63 22.57h2.222c.741 0 1.205.515 1.205 1.14 0 .484-.197.85-.651 1.03v.019c.444.119.572.545.602.97.01.258.01.744.168.971h-.909c-.108-.257-.098-.653-.138-.99-.06-.436-.227-.624-.691-.624h-.9V26.7h-.908zm.909 1.872h.987c.405 0 .623-.168.623-.584 0-.397-.218-.575-.623-.575h-.987z"/></g><g><path fill="#004578" d="M101.79 22.57h3.072v.763h-2.173v.881h1.995v.704h-1.995v1.01h2.222v.763h-3.121z"/></g><g><path fill="#004578" d="M106.84 22.57h.929l1.54 4.12h-.937l-.317-.92h-1.54l-.326.92h-.919zm-.088 2.536h1.066l-.523-1.516h-.01z"/></g><g><path fill="#004578" d="M89.19 28.96h.909v4.12h-.909z"/></g><g><path fill="#004578" d="M90.89 28.96h.899l1.719 2.764h.01V28.96h.849v4.12h-.899l-1.709-2.763h-.01v2.763h-.85v-4.12z"/></g><g><path fill="#004578" d="M95.78 31.713c0 .554.424.762.908.762.316 0 .8-.089.8-.515 0-.445-.613-.515-1.225-.683-.612-.159-1.225-.396-1.225-1.169 0-.842.8-1.248 1.541-1.248.86 0 1.65.376 1.65 1.327h-.87c-.03-.495-.375-.624-.81-.624-.286 0-.622.12-.622.466 0 .317.198.356 1.225.624.296.08 1.215.267 1.215 1.198 0 .763-.593 1.328-1.709 1.328-.909 0-1.758-.446-1.758-1.466z"/></g><g><path fill="#004578" d="M99.815 29.723H98.58v-.763h3.368v.763h-1.234v3.367h-.91v-3.367z"/></g><g><path fill="#004578" d="M102.42 28.96h.909v4.12h-.909z"/></g><g><path fill="#004578" d="M105.025 29.723h-1.235v-.763h3.368v.763h-1.234v3.367h-.91v-3.367z"/></g><g><path fill="#004578" d="M111.126 31.525c0 1.12-.661 1.655-1.758 1.655-1.106 0-1.748-.535-1.748-1.655V28.96h.899v2.565c0 .446.118.892.85.892.641 0 .849-.277.849-.892V28.96h.908z"/></g><g><path fill="#004578" d="M112.815 29.723h-1.235v-.763h3.368v.763h-1.234v3.367h-.91v-3.367z"/></g><g><path fill="#004578" d="M115.42 28.96h3.072v.763h-2.173v.881h1.995v.703h-1.995v1.01h2.212v.763h-3.121v-4.12z"/></g><g><path fill="#004578" d="M120.75 28.96h2.894v.763h-1.985v.95h1.718v.704h-1.718v1.703h-.909z"/></g><g><path fill="#004578" d="M126.015 28.86c1.274 0 2.015.95 2.015 2.18 0 1.188-.75 2.139-2.015 2.139-1.274 0-2.025-.951-2.025-2.14 0-1.218.75-2.179 2.025-2.179zm0 3.566c.81 0 1.116-.694 1.116-1.377 0-.723-.306-1.416-1.116-1.416-.82 0-1.116.693-1.116 1.416 0 .683.296 1.377 1.116 1.377z"/></g><g><path fill="#004578" d="M128.64 28.96h2.222c.741 0 1.205.515 1.205 1.14 0 .484-.197.85-.651 1.03v.01c.444.118.572.544.602.96.02.257.01.743.168.98h-.909c-.108-.257-.098-.663-.138-.99-.07-.436-.227-.624-.691-.624h-.91v1.614h-.898zm.909 1.872h.997c.405 0 .623-.168.623-.584 0-.397-.218-.575-.623-.575h-.997z"/></g><g><path fill="#004578" d="M90.32 35.35h.93l1.54 4.13h-.938l-.307-.92h-1.54l-.326.92h-.919zm-.088 2.536h1.066l-.523-1.516h-.01z"/></g><g><path fill="#004578" d="M93.21 35.35h1.778c1.067 0 1.867.674 1.867 2.04 0 1.199-.613 2.09-1.867 2.09H93.21zm1.709 3.368c.523 0 1.027-.327 1.027-1.238 0-.832-.286-1.367-1.185-1.367h-.642v2.605z"/></g><g><path fill="#004578" d="M99.43 39.48h-1.017l-1.333-4.13h.928l.92 2.902h.009l.928-2.902h.939z"/></g><g><path fill="#004578" d="M102.05 35.35h.93l1.54 4.13h-.938l-.307-.92h-1.54l-.326.92h-.919zm-.088 2.536h1.066l-.523-1.516h-.01z"/></g><g><path fill="#004578" d="M104.98 35.35h.899l1.719 2.764h.01V35.35h.849v4.13h-.909l-1.709-2.763h-.01v2.763h-.849z"/></g><g><path fill="#004578" d="M111.994 36.736c-.06-.406-.445-.723-.9-.723-.81 0-1.115.693-1.115 1.416 0 .684.306 1.377 1.116 1.377.553 0 .86-.376.928-.921h.88c-.09 1.03-.8 1.684-1.808 1.684-1.274 0-2.025-.951-2.025-2.14 0-1.228.75-2.179 2.025-2.179.899 0 1.67.525 1.778 1.486z"/></g><g><path fill="#004578" d="M113.51 35.35h3.082v.763h-2.173v.881h1.995v.703h-1.995v1.01h2.222v.763h-3.121v-4.12z"/></g><g><path fill="#004578" d="M117.24 35.35h1.768c1.067 0 1.867.674 1.867 2.04 0 1.199-.613 2.09-1.867 2.09h-1.768zm1.719 3.368c.523 0 1.027-.327 1.027-1.238 0-.832-.287-1.367-1.185-1.367h-.642v2.605z"/></g><g><path fill="#004578" d="M89.82 44.493c0 .544.424.762.908.762.316 0 .8-.089.8-.515 0-.446-.612-.525-1.225-.683-.612-.159-1.224-.406-1.224-1.179 0-.842.8-1.248 1.54-1.248.86 0 1.65.376 1.65 1.327h-.87c-.029-.495-.384-.624-.81-.624-.286 0-.621.12-.621.466 0 .317.197.356 1.224.624.297.08 1.225.267 1.225 1.198 0 .753-.592 1.318-1.709 1.318-.908 0-1.758-.446-1.748-1.466h.86z"/></g><g><path fill="#004578" d="M93.845 42.503H92.61v-.763h3.368v.763h-1.234v3.357h-.91v-3.357z"/></g><g><path fill="#004578" d="M99.936 44.305c0 1.12-.661 1.655-1.758 1.655-1.106 0-1.748-.535-1.748-1.655V41.74h.909v2.565c0 .456.118.892.85.892.641 0 .849-.287.849-.892V41.74h.908v2.565z"/></g><g><path fill="#004578" d="M100.72 41.74h1.778c1.067 0 1.867.674 1.867 2.04 0 1.199-.613 2.09-1.867 2.09h-1.778zm.909 3.368h.8c.523 0 1.027-.327 1.027-1.238 0-.832-.286-1.367-1.185-1.367h-.642z"/></g><g><path fill="#004578" d="M105.851 44.266l-1.521-2.516h1.017l.958 1.624.959-1.624h1.007l-1.53 2.546v1.584h-.9v-1.614z"/></g></g></g></g></g></svg>