
<svg xmlns="http://www.w3.org/2000/svg" xmlns:xlink="http://www.w3.org/1999/xlink" viewBox="0 0 179 43"><g id="ss2266581408_1"><path d="M 0 42.635 L 0 0 L 178.962 0 L 178.962 42.635 Z" fill="transparent"></path><path d="M 34.199 31.686 L 51.678 20.839 L 34.194 10.104" fill="rgb(226,15,35)"></path><path d="M 34.194 10.104 L 17.467 0 L 0 10.869 L 16.634 21.021" fill="rgb(242,94,87)"></path><path d="M 33.686 10.402 L 16.634 21.022 L 16.634 21.631 L 16.634 42.635 L 34.199 31.686 L 34.199 31.57 L 34.194 10.713 L 34.194 10.104 Z" fill="rgb(240,155,149)"></path><path d="M 116.687 18.971 C 115.333 18.971 114.181 19.082 113.237 19.305 C 112.288 19.527 111.371 19.945 110.485 20.559 C 109.92 20.955 109.466 21.493 109.118 22.182 C 108.771 22.871 108.602 23.521 108.602 24.139 L 108.602 35.168 L 103.397 35.168 L 103.397 14.698 L 108.602 14.698 L 108.602 16.837 C 109.732 16.001 110.997 15.387 112.386 14.991 C 113.775 14.6 115.213 14.4 116.687 14.4 L 116.687 18.976 Z" fill="rgb(4,4,4)"></path><path d="M 178.962 18.971 C 177.609 18.971 176.455 19.082 175.511 19.305 C 174.564 19.527 173.646 19.945 172.76 20.559 C 172.195 20.955 171.74 21.493 171.393 22.182 C 171.046 22.871 170.877 23.521 170.877 24.139 L 170.877 35.168 L 165.672 35.168 L 165.672 14.698 L 170.877 14.698 L 170.877 16.837 C 172.008 16.001 173.272 15.387 174.661 14.991 C 176.051 14.6 177.489 14.4 178.962 14.4 L 178.962 18.976 Z" fill="rgb(4,4,4)"></path><path d="M 67.462 19.963 L 73.134 19.963 L 73.134 15.872 L 67.462 15.872 L 67.462 10.628 L 58.744 19.007 L 58.744 19.963 L 62.511 19.963 L 62.511 29.244 C 62.511 33.077 64.515 35.163 68.882 35.163 L 73.139 35.163 L 73.139 30.298 L 70.191 30.298 C 68.548 30.298 67.466 29.8 67.466 27.963 L 67.466 19.958 Z" fill="rgb(4,4,4)"></path><path d="M 133.615 8.596 L 133.615 17.201 C 131.897 15.836 129.724 15.017 127.355 15.017 C 121.785 15.017 117.271 19.527 117.271 25.09 C 117.271 30.654 121.785 35.163 127.355 35.163 C 129.724 35.163 131.897 34.34 133.615 32.979 L 133.615 35.163 L 139.065 35.163 L 139.065 8.596 Z M 128.255 30.391 C 125.298 30.391 122.898 27.999 122.898 25.041 C 122.898 22.084 125.293 19.691 128.255 19.691 C 131.215 19.691 133.61 22.084 133.61 25.041 C 133.61 27.999 131.215 30.391 128.255 30.391 Z" fill="rgb(4,4,4)"></path><path d="M 90.111 14.711 C 84.456 14.711 79.871 19.291 79.871 24.939 C 79.871 30.587 84.456 35.167 90.111 35.167 C 95.766 35.167 100.352 30.587 100.352 24.939 C 100.352 19.291 95.766 14.711 90.111 14.711 Z M 90.111 30.436 C 87.07 30.436 84.604 27.972 84.604 24.934 C 84.604 21.897 87.07 19.433 90.111 19.433 C 93.152 19.433 95.618 21.897 95.618 24.934 C 95.618 27.972 93.152 30.436 90.111 30.436 Z" fill="rgb(4,4,4)"></path><path d="M 162.546 26.229 C 162.6 25.806 162.635 25.375 162.635 24.939 C 162.635 19.291 158.049 14.711 152.395 14.711 C 146.741 14.711 142.155 19.291 142.155 24.939 C 142.155 30.587 146.741 35.167 152.395 35.167 C 156.883 35.167 160.685 32.277 162.07 28.265 L 156.776 28.265 C 155.77 29.586 154.185 30.44 152.395 30.44 C 149.8 30.44 147.627 28.643 147.048 26.224 L 157.747 26.224 C 157.747 26.224 157.747 26.224 157.747 26.229 Z M 152.399 19.438 C 154.626 19.438 156.54 20.763 157.408 22.662 L 147.39 22.662 C 148.259 20.763 150.173 19.438 152.399 19.438 Z" fill="rgb(4,4,4)"></path><path d="M 78.143 10.695 C 77.898 10.575 77.623 10.508 77.333 10.508 C 76.309 10.508 75.476 11.34 75.476 12.363 C 75.476 12.816 75.641 13.23 75.913 13.555 C 75.913 13.555 75.935 13.577 75.944 13.59 C 75.948 13.599 75.957 13.604 75.962 13.612 C 78.49 16.516 75.663 18.767 75.663 18.767 C 75.663 18.767 75.877 19.096 75.971 19.242 C 80.641 17.842 80.32 11.722 78.138 10.7 Z" fill="rgb(226,15,35)"></path><path d="M 76.02 19.305 C 76.02 19.305 76.002 19.278 75.975 19.238 Z" fill="rgb(226,15,35)"></path></g></svg>